<svg xmlns="http://www.w3.org/2000/svg" version="1.0" viewBox="0 0 350 350"><rect width="100%" height="100%" fill="#fff"/><path d="M0 175v175h350V0H0v175zm230.9-35.2C261.2 200 286 249.2 286 249.3c0 .1-39.7.1-88.3-.1l-88.2-.2-6.3 13.5c-3.5 7.4-10.6 22.3-15.8 33L78 315H57.5c-11.3 0-20.5-.2-20.5-.4 0-1 6.3-14.3 29.8-63.1 14-29.2 27.2-56.6 29.2-61 2.1-4.4 9.7-20.2 17-35 7.3-14.9 16.6-34.2 20.7-43 4.1-8.8 13.4-27.9 20.5-42.5 7.2-14.6 14.6-29.8 16.5-33.9 1.9-4 3.8-6.9 4.3-6.5.4.5 25.5 50.1 55.9 110.2zm33.4 141.9c3.3 7.2 3.1 20.9-.3 27.8l-2.5 5-20.9.3-20.9.2 4.4-3.9c5.4-4.7 9.7-12.2 10.5-18.3.5-3.4.1-5.7-1.5-9.3-1.1-2.6-2.1-5.1-2.1-5.6s7-.9 15.6-.9h15.5l2.2 4.7z"/><path d="M169.2 123c-3.2 6.9-11 23.1-17.2 36-6.2 12.9-14.8 31.1-19.1 40.5l-7.7 17 51.6.3c28.3.1 51.7 0 52-.2.2-.3-2.4-5.8-5.9-12.3-3.4-6.5-15.6-30.2-27-52.8l-20.7-41-6 12.5z"/></svg>