<?xml version="1.0" standalone="no"?>
<!DOCTYPE svg PUBLIC "-//W3C//DTD SVG 20010904//EN"
 "http://www.w3.org/TR/2001/REC-SVG-20010904/DTD/svg10.dtd">
<svg version="1.0" xmlns="http://www.w3.org/2000/svg"
 width="350.000000pt" height="350.000000pt" viewBox="0 0 350.000000 350.000000"
 preserveAspectRatio="xMidYMid meet">
<rect width="100%" height="100%" fill="white" />
<g transform="translate(0.000000,350.000000) scale(0.100000,-0.100000)"
fill="#000000" stroke="none">
<path d="M0 1750 l0 -1750 1750 0 1750 0 0 1750 0 1750 -1750 0 -1750 0 0
-1750z m2309 352 c303 -602 551 -1094 551 -1095 0 -1 -397 -1 -883 1 l-882 2
-63 -135 c-35 -74 -106 -223 -158 -330 l-94 -195 -205 0 c-113 0 -205 2 -205
4 0 10 63 143 298 631 140 292 272 566 292 610 21 44 97 202 170 350 73 149
166 342 207 430 41 88 134 279 205 425 72 146 146 298 165 339 19 40 38 69 43
65 4 -5 255 -501 559 -1102z m334 -1419 c33 -72 31 -209 -3 -278 l-25 -50
-209 -3 -209 -2 44 39 c54 47 97 122 105 183 5 34 1 57 -15 93 -11 26 -21 51
-21 56 0 5 70 9 156 9 l155 0 22 -47z"/>
<path d="M1692 2270 c-32 -69 -110 -231 -172 -360 -62 -129 -148 -311 -191
-405 l-77 -170 516 -3 c283 -1 517 0 520 2 2 3 -24 58 -59 123 -34 65 -156
302 -270 528 l-207 410 -60 -125z"/>
</g>
</svg>
